HIERARCHY
ROOT hip
{
	OFFSET 0.000000 0.000000 0.000000 
	CHANNELS 6 Xposition Yposition Zposition Xrotation Zrotation Yrotation
	JOINT abdomen
	{
		OFFSET 0.000000 3.402643 0.000000 
		CHANNELS 3 Xrotation Zrotation Yrotation
		JOINT chest
		{
			OFFSET 0.000000 8.438565 -0.680529 
			CHANNELS 3 Xrotation Zrotation Yrotation
			JOINT neck
			{
				OFFSET 0.000000 10.207942 -0.272212 
				CHANNELS 3 Xrotation Zrotation Yrotation
				JOINT head
				{
					OFFSET 0.000000 3.130431 0.000000 
					CHANNELS 3 Xrotation Zrotation Yrotation
					End Site
					{
						OFFSET 0.000000 3.130435 0.000000 
					}
				}
			}
			JOINT lCollar
			{
				OFFSET 3.470700 6.669187 -0.816635 
				CHANNELS 3 Yrotation Zrotation Xrotation
				JOINT lShldr
				{
					OFFSET 3.198488 0.000000 0.000000 
					CHANNELS 3 Zrotation Yrotation Xrotation
					JOINT lForeArm
					{
						OFFSET 10.139888 0.000000 0.000000 
						CHANNELS 3 Yrotation Zrotation Xrotation
						JOINT lHand
						{
							OFFSET 8.370511 0.000000 0.000000 
							CHANNELS 3 Zrotation Yrotation Xrotation
							End Site
							{
								OFFSET 4.083176 0.000000 0.000000 
							}
						}
					}
				}
			}
			JOINT rCollar
			{
				OFFSET -3.470700 6.669187 -0.816635 
				CHANNELS 3 Yrotation Zrotation Xrotation
				JOINT rShldr
				{
					OFFSET -3.198488 0.000000 0.000000 
					CHANNELS 3 Zrotation Yrotation Xrotation
					JOINT rForeArm
					{
						OFFSET -10.139888 0.000000 0.000000 
						CHANNELS 3 Yrotation Zrotation Xrotation
						JOINT rHand
						{
							OFFSET -8.370511 0.000000 0.000000 
							CHANNELS 3 Zrotation Yrotation Xrotation
							End Site
							{
								OFFSET -4.083176 0.000000 0.000000 
							}
						}
					}
				}
			}
		}
	}
	JOINT lThigh
	{
		OFFSET 5.308129 -1.633274 1.361059 
		CHANNELS 3 Xrotation Zrotation Yrotation
		JOINT lShin
		{
			OFFSET -2.041588 -20.007561 0.000000 
			CHANNELS 3 Xrotation Zrotation Yrotation
			JOINT lFoot
			{
				OFFSET 0.000000 -19.190928 -1.224953 
				CHANNELS 3 Xrotation Yrotation Zrotation
				End Site
				{
					OFFSET 0.000000 -2.449906 4.627600 
				}
			}
		}
	}
	JOINT rThigh
	{
		OFFSET -5.308129 -1.633274 1.361059 
		CHANNELS 3 Xrotation Zrotation Yrotation
		JOINT rShin
		{
			OFFSET 2.041588 -20.007561 0.000000 
			CHANNELS 3 Xrotation Zrotation Yrotation
			JOINT rFoot
			{
				OFFSET 0.000000 -19.190928 -1.224953 
				CHANNELS 3 Xrotation Yrotation Zrotation
				End Site
				{
					OFFSET 0.000000 -2.449906 4.627600 
				}
			}
		}
	}
}
MOTION
Frames: 16
Frame Time: 0.033333
-14.639295 50.122524 -11.941411 3.418628 1.068901 -5.703951 0.000000 0.000000 0.000000 8.723374 1.210645 -1.259897 -6.863747 -0.360256 4.414098 27.949228 5.173647 3.893717 13.143044 0.996728 8.434741 -67.154793 -2.295598 19.690161 -53.739391 -2.443134 23.873219 0.000087 9.599014 -3.580454 -12.190368 1.640760 8.911664 62.086433 -11.163034 17.526020 54.570217 8.803258 21.304379 -14.249319 -4.849509 -3.343393 -14.280824 0.331370 0.516042 25.431980 -1.297710 13.800041 -14.343183 0.423307 -3.219333 -15.396504 -7.302728 -4.104854 26.275724 1.718093 -7.562823 -13.242244 -0.667289 5.608239 
-14.617515 50.264606 -11.713733 3.156119 1.107288 -5.948227 0.000000 0.000000 0.000000 8.404773 1.181417 -1.113447 -7.426566 -0.612902 4.990470 28.945208 6.079326 3.957851 13.291334 0.893715 8.154110 -66.476563 -0.235356 19.386675 -51.613506 -2.824356 27.930878 -2.469741 11.471361 -3.783326 -11.808187 1.405628 8.576644 62.404671 -10.936420 17.081530 53.329071 9.131063 20.972889 -13.676579 -5.504011 -3.281050 -12.959991 0.292340 0.650712 23.913046 -1.445438 13.998310 -13.907700 0.346066 -3.004808 -14.232309 -7.301463 -4.166289 24.921114 1.713090 -7.523862 -12.801640 -0.661517 5.583508 
-14.590848 50.378994 -11.541734 2.939121 1.116882 -6.006999 0.000000 0.000000 0.000000 8.233934 1.201037 -0.859391 -7.819603 -0.739274 5.078456 29.509115 6.324827 3.694680 13.398179 1.231176 7.931445 -66.038467 1.397761 19.389685 -50.036613 -3.350801 29.168125 -3.431323 11.892387 -3.873388 -11.603959 1.226277 8.399138 62.650982 -10.661434 16.906757 52.874012 9.290816 20.529373 -13.054052 -6.157287 -3.236806 -11.949810 0.145770 0.586806 22.643854 -1.392782 14.291674 -13.450352 0.317969 -2.906780 -13.230995 -7.304001 -4.278333 23.743202 1.697815 -7.475868 -12.417926 -0.629238 5.551139 
-14.561413 50.459236 -11.436865 2.775821 1.019997 -5.879710 0.000000 0.000000 0.000000 8.148461 1.288968 -0.693404 -7.634276 -0.564504 4.697423 28.537283 5.391245 3.345609 13.555343 1.656638 7.802124 -65.699364 2.618403 19.199036 -48.702477 -3.800302 27.917767 -3.862171 11.074986 -3.861258 -11.522017 1.164909 8.324229 62.586834 -10.280518 17.169086 53.090000 9.243818 20.264668 -12.310966 -6.031080 -3.255246 -11.258740 0.028301 0.415487 21.710449 -1.224953 14.468804 -13.081182 0.336562 -2.861742 -12.467453 -7.263670 -4.363560 22.823118 1.749888 -7.624749 -12.074073 -0.621673 5.539458 
-14.549944 50.530018 -11.353668 2.421737 0.854855 -5.879561 0.000000 0.000000 0.000000 8.385343 1.347593 -0.556716 -6.581759 -0.603519 4.599765 25.121210 5.334607 2.982210 13.696056 1.925304 7.968163 -65.494820 3.721478 18.537380 -48.090557 -4.045298 24.907341 -3.097065 10.210876 -3.781360 -11.464694 1.293370 8.566627 62.182472 -9.534489 17.522078 53.526985 9.041745 20.405201 -12.075793 -4.885552 -3.369025 -10.486252 0.058097 0.398324 21.014082 -1.162474 14.613855 -12.777940 0.297976 -2.813987 -11.531558 -7.078930 -4.335489 21.915012 1.697195 -7.646252 -11.735852 -0.601917 5.566488 
-14.549679 50.579769 -11.327275 2.126078 0.699512 -5.810947 0.000000 0.000000 0.000000 8.913286 1.357364 -0.527427 -5.449524 -0.749643 4.492569 20.236975 5.463198 2.590580 13.673219 2.284761 8.395579 -65.834435 4.569401 17.439734 -48.161739 -3.936915 21.850971 -0.920812 9.208777 -3.636505 -11.652051 1.373839 9.051031 61.912483 -8.262714 17.589262 54.104298 8.685938 20.463671 -12.899269 -3.984276 -3.450219 -9.901866 0.116951 0.345504 20.510033 -1.023711 14.555270 -12.524341 0.319841 -2.822826 -10.817330 -6.921635 -4.373693 21.229258 1.669762 -7.631111 -11.448337 -0.578625 5.563296 
-14.542762 50.611649 -11.400449 2.021053 0.709564 -5.537530 0.000000 0.000000 0.000000 9.584481 1.249909 -0.693407 -5.478557 -0.886036 4.414590 18.954937 5.658822 2.473011 13.254376 3.051136 8.933892 -66.981407 5.171664 15.859631 -48.720940 -3.380981 20.356024 1.077662 7.738910 -3.513103 -11.754227 1.303821 9.651174 62.058075 -7.052140 17.132956 55.046574 8.216980 19.675396 -14.294517 -3.458390 -3.499270 -9.706530 0.029191 0.216514 20.077829 -0.938067 14.425515 -12.214997 0.314511 -2.714578 -10.581102 -6.978780 -4.477433 20.872902 1.697805 -7.860238 -11.171556 -0.562798 5.556449 
-14.548676 50.623981 -11.547500 2.266912 0.748956 -5.117515 0.000000 0.000000 0.000000 9.962987 1.152211 -0.869161 -6.142734 -0.905615 4.326711 21.159172 5.443894 2.541043 12.733626 4.232832 9.158203 -68.468361 5.509085 14.866754 -49.323189 -2.970618 19.238037 2.942433 6.967696 -3.448285 -11.749798 0.897051 9.944889 62.791809 -6.511787 16.460335 56.063259 7.796622 18.635181 -16.920815 -3.400636 -3.505155 -10.126845 -0.030104 0.092056 19.909359 -0.894932 14.323560 -11.882869 0.272272 -2.646614 -10.883867 -6.998397 -4.479387 20.782997 1.745954 -8.168916 -10.992834 -0.534552 5.535244 
-14.551977 50.637699 -11.710362 2.769232 0.739526 -4.853867 0.000000 0.000000 0.000000 9.994051 1.152237 -0.781288 -6.445767 -0.934971 4.209538 23.463789 5.161683 2.353569 12.628094 5.288827 9.064499 -69.494659 5.248062 14.852218 -49.668507 -2.875980 18.434017 3.871984 7.215041 -3.418001 -11.765291 0.481879 9.921725 63.519749 -6.331202 16.063826 56.624916 7.610514 17.553345 -18.797636 -3.576272 -3.484070 -10.833097 -0.010080 -0.062371 19.800802 -0.907591 14.316988 -11.581896 0.270293 -2.580439 -11.481794 -6.892817 -4.370932 20.570917 1.775959 -8.585358 -10.708165 -0.511478 5.488348 
-14.526245 50.651203 -11.877485 3.213651 0.817523 -4.726916 0.000000 0.000000 0.000000 10.154630 1.113223 -0.586017 -6.119649 -1.052037 4.063069 23.260967 4.958190 1.911517 12.716393 6.016529 9.115842 -69.989296 4.354418 15.303332 -50.165905 -2.796179 18.575968 3.620566 7.600856 -3.430956 -11.829599 0.363449 10.052674 63.755985 -6.006575 15.935960 56.852272 7.504646 17.209156 -18.340342 -3.539051 -3.484225 -11.390421 -0.117786 -0.193624 19.570593 -0.883002 14.400122 -11.252586 0.255297 -2.466388 -12.047688 -6.970632 -4.284918 20.436190 1.835096 -8.788022 -10.445037 -0.517848 5.459899 
-14.485579 50.642799 -12.045959 3.359760 0.944071 -4.707517 0.000000 0.000000 0.000000 10.705250 0.996065 -0.439387 -5.484525 -1.052063 4.043541 21.199474 4.675789 1.656041 12.749629 6.767609 9.542654 -70.470100 3.072419 15.891582 -50.805664 -2.728911 18.353737 3.885127 7.304348 -3.419783 -11.748901 0.344404 10.553518 63.732483 -5.535540 15.931911 57.190918 7.383189 17.898577 -18.202332 -3.409990 -3.502433 -11.763557 -0.312853 -0.392325 19.543865 -0.867490 14.687022 -10.988794 0.242020 -2.438756 -12.496234 -7.175377 -4.367585 20.599606 1.931959 -8.664992 -10.309913 -0.490999 5.384497 
-14.449778 50.639454 -12.207150 3.384930 1.002523 -4.668620 0.000000 0.000000 0.000000 11.478302 0.937480 -0.371044 -5.342730 -0.934936 4.238831 20.321444 4.519446 1.724177 12.681547 7.424312 10.173660 -71.053246 1.666375 16.183096 -51.576550 -2.563930 17.744040 4.491633 6.541510 -3.421042 -11.541540 0.392450 11.251817 63.591671 -4.638110 16.239304 57.167805 7.422724 17.787558 -17.341864 -3.394857 -3.510528 -12.001782 -0.429806 -0.486424 19.469467 -0.868839 14.788251 -10.764664 0.198342 -2.350524 -12.779128 -7.243603 -4.307583 20.650551 1.874006 -8.827799 -10.102192 -0.513150 5.424877 
-14.423223 50.619572 -12.423811 3.592293 1.061474 -4.287820 0.000000 0.000000 0.000000 12.226460 1.015577 -0.556726 -5.697268 -0.944505 4.375531 21.074146 4.372554 1.919658 12.390948 7.814327 10.821988 -71.558754 0.248146 16.297901 -52.637188 -2.411520 16.840191 5.190203 6.019703 -3.415165 -11.484818 -0.027108 11.902391 63.750999 -3.432004 16.678616 56.772144 7.640222 17.667456 -15.970182 -3.564862 -3.486248 -12.590885 -0.566290 -0.717419 19.603735 -0.828375 14.670925 -10.502392 0.202799 -2.303386 -13.334098 -7.271904 -4.211567 20.890490 1.804563 -9.273886 -9.944918 -0.494133 5.507382 
-14.363420 50.569923 -12.689330 3.598809 1.061943 -3.936136 0.000000 0.000000 0.000000 13.120593 1.259686 -0.644590 -5.706450 -1.119337 4.659029 22.255409 4.635723 2.047754 12.017502 8.741022 11.524867 -72.734100 -1.430347 16.543055 -53.328907 -2.264043 16.391432 5.538607 5.621839 -3.421464 -11.273610 -0.888431 12.633439 64.159042 -2.463471 16.895536 56.512543 7.878011 18.046543 -15.305522 -3.847347 -3.447887 -13.183078 -0.761927 -0.914340 20.096577 -0.674223 14.604367 -10.386259 0.182703 -2.236749 -13.884336 -7.410675 -4.295400 21.405371 1.835892 -9.444397 -9.885571 -0.504067 5.523377 
-14.318759 50.505089 -12.922360 3.473325 0.984388 -3.594226 0.000000 0.000000 0.000000 14.006551 1.572175 -0.615271 -5.407651 -1.109208 4.903124 23.236998 4.537817 2.155607 11.838006 10.041413 12.176201 -73.971832 -3.415126 17.238377 -53.721783 -2.166475 16.722885 5.104644 5.690461 -3.426086 -11.121063 -1.668437 13.393404 64.586304 -1.705100 17.143490 56.357487 8.035268 18.416807 -14.370819 -4.496511 -3.387118 -13.738804 -0.810586 -1.042554 20.785028 -0.643405 14.420847 -10.425982 0.186125 -2.224504 -14.300615 -7.476865 -4.322157 22.014273 1.843644 -9.700164 -9.897110 -0.494094 5.603925 
-14.324488 50.464584 -13.116860 3.747933 0.926337 -3.144909 0.000000 0.000000 0.000000 14.510725 1.796758 -0.654588 -5.298229 -0.826807 5.088346 23.867121 3.765882 2.524991 11.941595 10.734767 12.516835 -74.242241 -5.528171 18.302895 -54.057468 -2.134057 17.222418 4.133919 6.047392 -3.440007 -11.333800 -1.740114 13.871479 64.367661 -0.997778 17.400921 56.116150 8.175865 18.821400 -13.437328 -4.702331 -3.376440 -14.509911 -0.771559 -1.090407 21.248159 -0.683769 14.060674 -10.380832 0.188964 -2.114696 -14.917864 -7.419734 -4.279906 22.379992 1.835304 -10.236616 -9.871755 -0.499686 5.676461 
